# xmcd
#
# Track frame offsets: 
#        150
#        30225
#        68867
#        103257
#        157187
#        181067
#        210735
#        241867
#        273637
#
# Disc length: 4127 seconds
#
# Revision: 1
# Processed by: cddbd v1.5.2PL0 Copyright (c) Steve Scherf et al.
# Submitted via: ExactAudioCopy v0.99pb5
#
DISCID=7a101d09
DTITLE=George Mraz - Bottom Lines
DYEAR=1997
DGENRE=Jazz
TTITLE0=Three View of a Secret
TTITLE1=San Felice
TTITLE2=Christina
TTITLE3=Lisa Marie
TTITLE4=Mr. Pastorius
TTITLE5=Little Waltz
TTITLE6=Strange Blues
TTITLE7=Goodbye Porkpie Hat
TTITLE8=Falling Grace
EXTD=YEAR: 1997
EXTT0=
EXTT1=
EXTT2=
EXTT3=
EXTT4=
EXTT5=
EXTT6=
EXTT7=
EXTT8=
PLAYORDER=
